{
    "asset" : {
        "generator" : "Khronos glTF Blender I/O v1.1.46",
        "version" : "2.0"
    },
    "scene" : 0,
    "scenes" : [
        {
            "name" : "Scene",
            "nodes" : [
                0,
                1,
                5
            ]
        }
    ],
    "nodes" : [
        {
            "name" : "Light",
            "rotation" : [
                0.16907575726509094,
                0.7558803558349609,
                -0.27217137813568115,
                0.570947527885437
            ],
            "translation" : [
                -3.7858071327209473,
                5.760861873626709,
                1.6657193899154663
            ]
        },
        {
            "name" : "Camera",
            "rotation" : [
                0.483536034822464,
                0.33687159419059753,
                -0.20870360732078552,
                0.7804827094078064
            ],
            "translation" : [
                -0.06492799520492554,
                4.794790267944336,
                9.678101539611816
            ]
        },
        {
            "mesh" : 0,
            "name" : "base",
            "translation" : [
                0,
                0,
                -0.5932337045669556
            ]
        },
        {
            "mesh" : 1,
            "name" : "teclado"
        },
        {
            "mesh" : 2,
            "name" : "tela",
            "rotation" : [
                -0.7885242104530334,
                0,
                0,
                0.6150037050247192
            ],
            "translation" : [
                0,
                -14.52834701538086,
                -11.656360626220703
            ]
        },
        {
            "children" : [
                2,
                3,
                4
            ],
            "name" : "notebook",
            "rotation" : [
                0.7071068286895752,
                0,
                0,
                0.7071067094802856
            ],
            "scale" : [
                0.008423138409852982,
                0.008423138409852982,
                0.008423138409852982
            ],
            "translation" : [
                -0.025296330451965332,
                -0.00813706312328577,
                -0.001961648464202881
            ]
        }
    ],
    "materials" : [
        {
            "doubleSided" : true,
            "emissiveFactor" : [
                0,
                0,
                0
            ],
            "name" : "corpo_notebook",
            "pbrMetallicRoughness" : {
                "baseColorFactor" : [
                    0.5,
                    0.5,
                    0.5,
                    1
                ],
                "metallicFactor" : 0,
                "roughnessFactor" : 0.5527864098548889
            }
        },
        {
            "doubleSided" : true,
            "emissiveFactor" : [
                0,
                0,
                0
            ],
            "name" : "teclado1",
            "pbrMetallicRoughness" : {
                "baseColorFactor" : [
                    0.5,
                    0.5,
                    0.5,
                    1
                ],
                "metallicFactor" : 0,
                "roughnessFactor" : 0.5527864098548889
            }
        },
        {
            "doubleSided" : true,
            "emissiveFactor" : [
                0,
                0,
                0
            ],
            "name" : "tela1",
            "pbrMetallicRoughness" : {
                "metallicFactor" : 0,
                "roughnessFactor" : 0.5527864098548889
            }
        }
    ],
    "meshes" : [
        {
            "name" : "Mesh",
            "primitives" : [
                {
                    "attributes" : {
                        "POSITION" : 0,
                        "NORMAL" : 1,
                        "TEXCOORD_0" : 2
                    },
                    "indices" : 3,
                    "material" : 0
                }
            ]
        },
        {
            "name" : "Mesh.002",
            "primitives" : [
                {
                    "attributes" : {
                        "POSITION" : 4,
                        "NORMAL" : 5,
                        "TEXCOORD_0" : 6
                    },
                    "indices" : 7,
                    "material" : 1
                }
            ]
        },
        {
            "name" : "Mesh.001",
            "primitives" : [
                {
                    "attributes" : {
                        "POSITION" : 8,
                        "NORMAL" : 9,
                        "TEXCOORD_0" : 10
                    },
                    "indices" : 11,
                    "material" : 2
                }
            ]
        }
    ],
    "accessors" : [
        {
            "bufferView" : 0,
            "componentType" : 5126,
            "count" : 180,
            "max" : [
                16.25,
                11.350000381469727,
                0.0064430832862854
            ],
            "min" : [
                -16.25,
                -11.350000381469727,
                -0.5
            ],
            "type" : "VEC3"
        },
        {
            "bufferView" : 1,
            "componentType" : 5126,
            "count" : 180,
            "type" : "VEC3"
        },
        {
            "bufferView" : 2,
            "componentType" : 5126,
            "count" : 180,
            "type" : "VEC2"
        },
        {
            "bufferView" : 3,
            "componentType" : 5123,
            "count" : 588,
            "type" : "SCALAR"
        },
        {
            "bufferView" : 4,
            "componentType" : 5126,
            "count" : 3164,
            "max" : [
                13.755218505859375,
                2.783482551574707,
                -0.7921894192695618
            ],
            "min" : [
                -14.060565948486328,
                -5.446969032287598,
                -1.0019911527633667
            ],
            "type" : "VEC3"
        },
        {
            "bufferView" : 5,
            "componentType" : 5126,
            "count" : 3164,
            "type" : "VEC3"
        },
        {
            "bufferView" : 6,
            "componentType" : 5126,
            "count" : 3164,
            "type" : "VEC2"
        },
        {
            "bufferView" : 7,
            "componentType" : 5123,
            "count" : 7308,
            "type" : "SCALAR"
        },
        {
            "bufferView" : 8,
            "componentType" : 5126,
            "count" : 124,
            "max" : [
                16.25,
                11.350000381469727,
                0.4999990463256836
            ],
            "min" : [
                -16.25,
                -11.350000381469727,
                0.17417502403259277
            ],
            "type" : "VEC3"
        },
        {
            "bufferView" : 9,
            "componentType" : 5126,
            "count" : 124,
            "type" : "VEC3"
        },
        {
            "bufferView" : 10,
            "componentType" : 5126,
            "count" : 124,
            "type" : "VEC2"
        },
        {
            "bufferView" : 11,
            "componentType" : 5123,
            "count" : 348,
            "type" : "SCALAR"
        }
    ],
    "bufferViews" : [
        {
            "buffer" : 0,
            "byteLength" : 2160,
            "byteOffset" : 0
        },
        {
            "buffer" : 0,
            "byteLength" : 2160,
            "byteOffset" : 2160
        },
        {
            "buffer" : 0,
            "byteLength" : 1440,
            "byteOffset" : 4320
        },
        {
            "buffer" : 0,
            "byteLength" : 1176,
            "byteOffset" : 5760
        },
        {
            "buffer" : 0,
            "byteLength" : 37968,
            "byteOffset" : 6936
        },
        {
            "buffer" : 0,
            "byteLength" : 37968,
            "byteOffset" : 44904
        },
        {
            "buffer" : 0,
            "byteLength" : 25312,
            "byteOffset" : 82872
        },
        {
            "buffer" : 0,
            "byteLength" : 14616,
            "byteOffset" : 108184
        },
        {
            "buffer" : 0,
            "byteLength" : 1488,
            "byteOffset" : 122800
        },
        {
            "buffer" : 0,
            "byteLength" : 1488,
            "byteOffset" : 124288
        },
        {
            "buffer" : 0,
            "byteLength" : 992,
            "byteOffset" : 125776
        },
        {
            "buffer" : 0,
            "byteLength" : 696,
            "byteOffset" : 126768
        }
    ],
    "buffers" : [
        {
            "byteLength" : 127464,
            "uri" : "laptop.bin"
        }
    ]
}
